<mxfile host="Electron" modified="2023-05-11T16:46:22.797Z" agent="Mozilla/5.0 (Windows NT 10.0; Win64; x64) AppleWebKit/537.36 (KHTML, like Gecko) draw.io/21.2.8 Chrome/112.0.5615.165 Electron/24.2.0 Safari/537.36" etag="oD8kAYtZdvWQ7kamlHv1" version="21.2.8" type="device">
  <diagram name="Página-1" id="xqndLr8KM-EVl-vZ3S0C">
    <mxGraphModel dx="1500" dy="2068" grid="1" gridSize="10" guides="1" tooltips="1" connect="1" arrows="1" fold="1" page="1" pageScale="1" pageWidth="827" pageHeight="1169" math="0" shadow="0">
      <root>
        <mxCell id="0" />
        <mxCell id="1" parent="0" />
        <mxCell id="SFQ_yNqbdvY2a28r_DXW-2" style="edgeStyle=orthogonalEdgeStyle;rounded=0;orthogonalLoop=1;jettySize=auto;html=1;entryX=0;entryY=0.5;entryDx=0;entryDy=0;" parent="1" source="jwtB_uwuyBpoJe-E4JpQ-1" target="SFQ_yNqbdvY2a28r_DXW-1" edge="1">
          <mxGeometry relative="1" as="geometry" />
        </mxCell>
        <mxCell id="jwtB_uwuyBpoJe-E4JpQ-1" value="usuario" style="whiteSpace=wrap;html=1;align=center;" parent="1" vertex="1">
          <mxGeometry x="200" y="210" width="100" height="40" as="geometry" />
        </mxCell>
        <mxCell id="jwtB_uwuyBpoJe-E4JpQ-3" style="edgeStyle=orthogonalEdgeStyle;rounded=0;orthogonalLoop=1;jettySize=auto;html=1;entryX=0;entryY=0.5;entryDx=0;entryDy=0;" parent="1" source="jwtB_uwuyBpoJe-E4JpQ-2" target="jwtB_uwuyBpoJe-E4JpQ-1" edge="1">
          <mxGeometry relative="1" as="geometry" />
        </mxCell>
        <mxCell id="jwtB_uwuyBpoJe-E4JpQ-2" value="id_usuario" style="ellipse;whiteSpace=wrap;html=1;align=center;fontStyle=4;" parent="1" vertex="1">
          <mxGeometry x="30" y="80" width="100" height="40" as="geometry" />
        </mxCell>
        <mxCell id="jwtB_uwuyBpoJe-E4JpQ-5" style="edgeStyle=orthogonalEdgeStyle;rounded=0;orthogonalLoop=1;jettySize=auto;html=1;entryX=0;entryY=0.5;entryDx=0;entryDy=0;" parent="1" source="jwtB_uwuyBpoJe-E4JpQ-4" target="jwtB_uwuyBpoJe-E4JpQ-1" edge="1">
          <mxGeometry relative="1" as="geometry" />
        </mxCell>
        <mxCell id="jwtB_uwuyBpoJe-E4JpQ-4" value="username" style="ellipse;whiteSpace=wrap;html=1;align=center;" parent="1" vertex="1">
          <mxGeometry x="30" y="130" width="100" height="40" as="geometry" />
        </mxCell>
        <mxCell id="jwtB_uwuyBpoJe-E4JpQ-7" style="edgeStyle=orthogonalEdgeStyle;rounded=0;orthogonalLoop=1;jettySize=auto;html=1;entryX=0;entryY=0.5;entryDx=0;entryDy=0;" parent="1" source="jwtB_uwuyBpoJe-E4JpQ-6" target="jwtB_uwuyBpoJe-E4JpQ-1" edge="1">
          <mxGeometry relative="1" as="geometry">
            <Array as="points">
              <mxPoint x="160" y="200" />
              <mxPoint x="160" y="230" />
            </Array>
          </mxGeometry>
        </mxCell>
        <mxCell id="jwtB_uwuyBpoJe-E4JpQ-6" value="password" style="ellipse;whiteSpace=wrap;html=1;align=center;" parent="1" vertex="1">
          <mxGeometry x="30" y="180" width="100" height="40" as="geometry" />
        </mxCell>
        <mxCell id="jwtB_uwuyBpoJe-E4JpQ-9" style="edgeStyle=orthogonalEdgeStyle;rounded=0;orthogonalLoop=1;jettySize=auto;html=1;" parent="1" source="jwtB_uwuyBpoJe-E4JpQ-8" edge="1">
          <mxGeometry relative="1" as="geometry">
            <mxPoint x="200" y="230" as="targetPoint" />
          </mxGeometry>
        </mxCell>
        <mxCell id="jwtB_uwuyBpoJe-E4JpQ-8" value="rol" style="ellipse;whiteSpace=wrap;html=1;align=center;" parent="1" vertex="1">
          <mxGeometry x="30" y="230" width="100" height="40" as="geometry" />
        </mxCell>
        <mxCell id="hdkqg9-tBqKJNnxFn2p5-3" style="edgeStyle=orthogonalEdgeStyle;rounded=0;orthogonalLoop=1;jettySize=auto;html=1;entryX=0;entryY=0.5;entryDx=0;entryDy=0;" parent="1" source="CPYr39Uea-LIrnxPLEq8-1" target="hdkqg9-tBqKJNnxFn2p5-2" edge="1">
          <mxGeometry relative="1" as="geometry">
            <Array as="points">
              <mxPoint x="980" y="160" />
              <mxPoint x="980" y="160" />
            </Array>
          </mxGeometry>
        </mxCell>
        <mxCell id="hdkqg9-tBqKJNnxFn2p5-15" style="edgeStyle=orthogonalEdgeStyle;rounded=0;orthogonalLoop=1;jettySize=auto;html=1;entryX=0.5;entryY=0;entryDx=0;entryDy=0;" parent="1" source="CPYr39Uea-LIrnxPLEq8-1" target="hdkqg9-tBqKJNnxFn2p5-14" edge="1">
          <mxGeometry relative="1" as="geometry">
            <Array as="points">
              <mxPoint x="670" y="240" />
            </Array>
          </mxGeometry>
        </mxCell>
        <mxCell id="CPYr39Uea-LIrnxPLEq8-1" value="médico" style="whiteSpace=wrap;html=1;align=center;" parent="1" vertex="1">
          <mxGeometry x="620" y="140" width="100" height="40" as="geometry" />
        </mxCell>
        <mxCell id="fabHO_pOaCCCnIY9OZKp-2" style="edgeStyle=orthogonalEdgeStyle;rounded=0;orthogonalLoop=1;jettySize=auto;html=1;entryX=0.5;entryY=1;entryDx=0;entryDy=0;exitX=1;exitY=1;exitDx=0;exitDy=0;" parent="1" source="CPYr39Uea-LIrnxPLEq8-3" target="fabHO_pOaCCCnIY9OZKp-3" edge="1">
          <mxGeometry relative="1" as="geometry">
            <mxPoint x="1310" y="580" as="targetPoint" />
            <Array as="points">
              <mxPoint x="610" y="600" />
              <mxPoint x="1320" y="600" />
            </Array>
          </mxGeometry>
        </mxCell>
        <mxCell id="Pz2hUDX345NdzsbgaiuW-1" style="edgeStyle=orthogonalEdgeStyle;rounded=0;orthogonalLoop=1;jettySize=auto;html=1;entryX=0.5;entryY=1;entryDx=0;entryDy=0;" parent="1" source="CPYr39Uea-LIrnxPLEq8-3" target="hdkqg9-tBqKJNnxFn2p5-14" edge="1">
          <mxGeometry relative="1" as="geometry">
            <mxPoint x="730" y="370" as="targetPoint" />
          </mxGeometry>
        </mxCell>
        <mxCell id="CPYr39Uea-LIrnxPLEq8-3" value="paciente" style="whiteSpace=wrap;html=1;align=center;" parent="1" vertex="1">
          <mxGeometry x="510" y="545" width="100" height="40" as="geometry" />
        </mxCell>
        <mxCell id="CPYr39Uea-LIrnxPLEq8-7" value="1:1" style="text;strokeColor=none;fillColor=none;spacingLeft=4;spacingRight=4;overflow=hidden;rotatable=0;points=[[0,0.5],[1,0.5]];portConstraint=eastwest;fontSize=12;whiteSpace=wrap;html=1;" parent="1" vertex="1">
          <mxGeometry x="510" y="150" width="40" height="30" as="geometry" />
        </mxCell>
        <mxCell id="CPYr39Uea-LIrnxPLEq8-9" value="1:1" style="text;strokeColor=none;fillColor=none;spacingLeft=4;spacingRight=4;overflow=hidden;rotatable=0;points=[[0,0.5],[1,0.5]];portConstraint=eastwest;fontSize=12;whiteSpace=wrap;html=1;" parent="1" vertex="1">
          <mxGeometry x="390" y="280" width="40" height="30" as="geometry" />
        </mxCell>
        <mxCell id="SFQ_yNqbdvY2a28r_DXW-13" style="edgeStyle=orthogonalEdgeStyle;rounded=0;orthogonalLoop=1;jettySize=auto;html=1;" parent="1" source="CPYr39Uea-LIrnxPLEq8-10" target="SFQ_yNqbdvY2a28r_DXW-12" edge="1">
          <mxGeometry relative="1" as="geometry" />
        </mxCell>
        <mxCell id="CPYr39Uea-LIrnxPLEq8-10" value="departamento" style="whiteSpace=wrap;html=1;align=center;" parent="1" vertex="1">
          <mxGeometry x="340" y="-50" width="100" height="40" as="geometry" />
        </mxCell>
        <mxCell id="SFQ_yNqbdvY2a28r_DXW-3" style="edgeStyle=orthogonalEdgeStyle;rounded=0;orthogonalLoop=1;jettySize=auto;html=1;entryX=0;entryY=0.5;entryDx=0;entryDy=0;" parent="1" source="SFQ_yNqbdvY2a28r_DXW-1" target="CPYr39Uea-LIrnxPLEq8-1" edge="1">
          <mxGeometry relative="1" as="geometry" />
        </mxCell>
        <mxCell id="SFQ_yNqbdvY2a28r_DXW-4" style="edgeStyle=orthogonalEdgeStyle;rounded=0;orthogonalLoop=1;jettySize=auto;html=1;exitX=0.5;exitY=1;exitDx=0;exitDy=0;entryX=0;entryY=0.5;entryDx=0;entryDy=0;" parent="1" source="SFQ_yNqbdvY2a28r_DXW-1" target="CPYr39Uea-LIrnxPLEq8-3" edge="1">
          <mxGeometry relative="1" as="geometry">
            <Array as="points">
              <mxPoint x="450" y="565" />
            </Array>
            <mxPoint x="450" y="540" as="targetPoint" />
          </mxGeometry>
        </mxCell>
        <mxCell id="SFQ_yNqbdvY2a28r_DXW-1" value="pertenece" style="rhombus;whiteSpace=wrap;html=1;" parent="1" vertex="1">
          <mxGeometry x="410" y="190" width="80" height="80" as="geometry" />
        </mxCell>
        <mxCell id="SFQ_yNqbdvY2a28r_DXW-5" value="1" style="text;html=1;strokeColor=none;fillColor=none;align=center;verticalAlign=middle;whiteSpace=wrap;rounded=0;" parent="1" vertex="1">
          <mxGeometry x="320" y="190" width="60" height="30" as="geometry" />
        </mxCell>
        <mxCell id="SFQ_yNqbdvY2a28r_DXW-7" value="1" style="text;html=1;strokeColor=none;fillColor=none;align=center;verticalAlign=middle;whiteSpace=wrap;rounded=0;" parent="1" vertex="1">
          <mxGeometry x="560" y="120" width="60" height="30" as="geometry" />
        </mxCell>
        <mxCell id="SFQ_yNqbdvY2a28r_DXW-11" value="1" style="text;html=1;strokeColor=none;fillColor=none;align=center;verticalAlign=middle;whiteSpace=wrap;rounded=0;" parent="1" vertex="1">
          <mxGeometry x="490" y="495" width="60" height="30" as="geometry" />
        </mxCell>
        <mxCell id="SFQ_yNqbdvY2a28r_DXW-14" style="edgeStyle=orthogonalEdgeStyle;rounded=0;orthogonalLoop=1;jettySize=auto;html=1;" parent="1" source="SFQ_yNqbdvY2a28r_DXW-12" edge="1">
          <mxGeometry relative="1" as="geometry">
            <mxPoint x="660" y="140" as="targetPoint" />
          </mxGeometry>
        </mxCell>
        <mxCell id="SFQ_yNqbdvY2a28r_DXW-12" value="tiene" style="rhombus;whiteSpace=wrap;html=1;" parent="1" vertex="1">
          <mxGeometry x="620" y="-50" width="80" height="80" as="geometry" />
        </mxCell>
        <mxCell id="hdkqg9-tBqKJNnxFn2p5-1" value="recetas" style="rounded=0;whiteSpace=wrap;html=1;" parent="1" vertex="1">
          <mxGeometry x="1250" y="130" width="120" height="60" as="geometry" />
        </mxCell>
        <mxCell id="hdkqg9-tBqKJNnxFn2p5-4" style="edgeStyle=orthogonalEdgeStyle;rounded=0;orthogonalLoop=1;jettySize=auto;html=1;entryX=0;entryY=0.5;entryDx=0;entryDy=0;" parent="1" source="hdkqg9-tBqKJNnxFn2p5-2" target="hdkqg9-tBqKJNnxFn2p5-1" edge="1">
          <mxGeometry relative="1" as="geometry">
            <Array as="points">
              <mxPoint x="1241" y="160" />
            </Array>
          </mxGeometry>
        </mxCell>
        <mxCell id="hdkqg9-tBqKJNnxFn2p5-2" value="escribe" style="rhombus;whiteSpace=wrap;html=1;" parent="1" vertex="1">
          <mxGeometry x="1040" y="190" width="80" height="80" as="geometry" />
        </mxCell>
        <mxCell id="hdkqg9-tBqKJNnxFn2p5-5" value="1" style="text;html=1;strokeColor=none;fillColor=none;align=center;verticalAlign=middle;whiteSpace=wrap;rounded=0;" parent="1" vertex="1">
          <mxGeometry x="1190" y="130" width="60" height="30" as="geometry" />
        </mxCell>
        <mxCell id="hdkqg9-tBqKJNnxFn2p5-6" value="m" style="text;html=1;strokeColor=none;fillColor=none;align=center;verticalAlign=middle;whiteSpace=wrap;rounded=0;" parent="1" vertex="1">
          <mxGeometry x="650" y="570" width="60" height="30" as="geometry" />
        </mxCell>
        <mxCell id="hdkqg9-tBqKJNnxFn2p5-7" value="1:m" style="text;html=1;strokeColor=none;fillColor=none;align=center;verticalAlign=middle;whiteSpace=wrap;rounded=0;" parent="1" vertex="1">
          <mxGeometry x="1050" y="160" width="60" height="30" as="geometry" />
        </mxCell>
        <mxCell id="hdkqg9-tBqKJNnxFn2p5-8" value="m" style="text;html=1;strokeColor=none;fillColor=none;align=center;verticalAlign=middle;whiteSpace=wrap;rounded=0;" parent="1" vertex="1">
          <mxGeometry x="610" y="80" width="60" height="30" as="geometry" />
        </mxCell>
        <mxCell id="hdkqg9-tBqKJNnxFn2p5-10" value="1" style="text;html=1;strokeColor=none;fillColor=none;align=center;verticalAlign=middle;whiteSpace=wrap;rounded=0;" parent="1" vertex="1">
          <mxGeometry x="440" y="-25" width="60" height="30" as="geometry" />
        </mxCell>
        <mxCell id="hdkqg9-tBqKJNnxFn2p5-11" value="1:m" style="text;html=1;strokeColor=none;fillColor=none;align=center;verticalAlign=middle;whiteSpace=wrap;rounded=0;" parent="1" vertex="1">
          <mxGeometry x="630" y="-90" width="60" height="30" as="geometry" />
        </mxCell>
        <mxCell id="hdkqg9-tBqKJNnxFn2p5-14" value="atiende" style="rhombus;whiteSpace=wrap;html=1;" parent="1" vertex="1">
          <mxGeometry x="760" y="240" width="80" height="80" as="geometry" />
        </mxCell>
        <mxCell id="hdkqg9-tBqKJNnxFn2p5-17" value="m,n" style="text;html=1;strokeColor=none;fillColor=none;align=center;verticalAlign=middle;whiteSpace=wrap;rounded=0;" parent="1" vertex="1">
          <mxGeometry x="700" y="270" width="60" height="30" as="geometry" />
        </mxCell>
        <mxCell id="hdkqg9-tBqKJNnxFn2p5-18" value="m" style="text;html=1;strokeColor=none;fillColor=none;align=center;verticalAlign=middle;whiteSpace=wrap;rounded=0;" parent="1" vertex="1">
          <mxGeometry x="670" y="190" width="60" height="30" as="geometry" />
        </mxCell>
        <mxCell id="hdkqg9-tBqKJNnxFn2p5-26" style="edgeStyle=orthogonalEdgeStyle;rounded=0;orthogonalLoop=1;jettySize=auto;html=1;entryX=0.5;entryY=1;entryDx=0;entryDy=0;" parent="1" source="hdkqg9-tBqKJNnxFn2p5-25" target="CPYr39Uea-LIrnxPLEq8-3" edge="1">
          <mxGeometry relative="1" as="geometry">
            <Array as="points">
              <mxPoint x="110" y="640" />
              <mxPoint x="560" y="640" />
            </Array>
          </mxGeometry>
        </mxCell>
        <mxCell id="hdkqg9-tBqKJNnxFn2p5-25" value="dni_paciente" style="ellipse;whiteSpace=wrap;html=1;align=center;fontStyle=4;" parent="1" vertex="1">
          <mxGeometry x="60" y="660" width="100" height="40" as="geometry" />
        </mxCell>
        <mxCell id="hdkqg9-tBqKJNnxFn2p5-28" style="edgeStyle=orthogonalEdgeStyle;rounded=0;orthogonalLoop=1;jettySize=auto;html=1;" parent="1" source="hdkqg9-tBqKJNnxFn2p5-27" target="CPYr39Uea-LIrnxPLEq8-3" edge="1">
          <mxGeometry relative="1" as="geometry">
            <mxPoint x="559.9999999999998" y="590" as="targetPoint" />
            <Array as="points">
              <mxPoint x="220" y="640" />
              <mxPoint x="560" y="640" />
            </Array>
          </mxGeometry>
        </mxCell>
        <mxCell id="hdkqg9-tBqKJNnxFn2p5-27" value="Nombre" style="ellipse;whiteSpace=wrap;html=1;align=center;" parent="1" vertex="1">
          <mxGeometry x="170" y="660" width="100" height="40" as="geometry" />
        </mxCell>
        <mxCell id="hdkqg9-tBqKJNnxFn2p5-30" style="edgeStyle=orthogonalEdgeStyle;rounded=0;orthogonalLoop=1;jettySize=auto;html=1;entryX=0.5;entryY=1;entryDx=0;entryDy=0;" parent="1" source="hdkqg9-tBqKJNnxFn2p5-29" target="CPYr39Uea-LIrnxPLEq8-3" edge="1">
          <mxGeometry relative="1" as="geometry">
            <Array as="points">
              <mxPoint x="330" y="640" />
              <mxPoint x="560" y="640" />
            </Array>
          </mxGeometry>
        </mxCell>
        <mxCell id="hdkqg9-tBqKJNnxFn2p5-29" value="Apellido" style="ellipse;whiteSpace=wrap;html=1;align=center;" parent="1" vertex="1">
          <mxGeometry x="280" y="660" width="100" height="40" as="geometry" />
        </mxCell>
        <mxCell id="hdkqg9-tBqKJNnxFn2p5-32" style="edgeStyle=orthogonalEdgeStyle;rounded=0;orthogonalLoop=1;jettySize=auto;html=1;entryX=0.5;entryY=1;entryDx=0;entryDy=0;" parent="1" source="hdkqg9-tBqKJNnxFn2p5-31" target="CPYr39Uea-LIrnxPLEq8-3" edge="1">
          <mxGeometry relative="1" as="geometry">
            <Array as="points">
              <mxPoint x="440" y="640" />
              <mxPoint x="560" y="640" />
            </Array>
          </mxGeometry>
        </mxCell>
        <mxCell id="hdkqg9-tBqKJNnxFn2p5-31" value="Fec_nac" style="ellipse;whiteSpace=wrap;html=1;align=center;" parent="1" vertex="1">
          <mxGeometry x="390" y="660" width="100" height="40" as="geometry" />
        </mxCell>
        <mxCell id="hdkqg9-tBqKJNnxFn2p5-35" style="edgeStyle=orthogonalEdgeStyle;rounded=0;orthogonalLoop=1;jettySize=auto;html=1;entryX=0.5;entryY=1;entryDx=0;entryDy=0;" parent="1" source="hdkqg9-tBqKJNnxFn2p5-33" target="CPYr39Uea-LIrnxPLEq8-3" edge="1">
          <mxGeometry relative="1" as="geometry">
            <Array as="points">
              <mxPoint x="560" y="630" />
              <mxPoint x="560" y="630" />
            </Array>
          </mxGeometry>
        </mxCell>
        <mxCell id="hdkqg9-tBqKJNnxFn2p5-33" value="Telefono" style="ellipse;whiteSpace=wrap;html=1;align=center;" parent="1" vertex="1">
          <mxGeometry x="500" y="660" width="100" height="40" as="geometry" />
        </mxCell>
        <mxCell id="hdkqg9-tBqKJNnxFn2p5-36" style="edgeStyle=orthogonalEdgeStyle;rounded=0;orthogonalLoop=1;jettySize=auto;html=1;entryX=0.5;entryY=1;entryDx=0;entryDy=0;" parent="1" source="hdkqg9-tBqKJNnxFn2p5-34" target="CPYr39Uea-LIrnxPLEq8-3" edge="1">
          <mxGeometry relative="1" as="geometry">
            <Array as="points">
              <mxPoint x="660" y="640" />
              <mxPoint x="560" y="640" />
            </Array>
          </mxGeometry>
        </mxCell>
        <mxCell id="hdkqg9-tBqKJNnxFn2p5-34" value="Dirección" style="ellipse;whiteSpace=wrap;html=1;align=center;" parent="1" vertex="1">
          <mxGeometry x="610" y="660" width="100" height="40" as="geometry" />
        </mxCell>
        <mxCell id="hdkqg9-tBqKJNnxFn2p5-37" value="m" style="text;strokeColor=none;fillColor=none;spacingLeft=4;spacingRight=4;overflow=hidden;rotatable=0;points=[[0,0.5],[1,0.5]];portConstraint=eastwest;fontSize=12;whiteSpace=wrap;html=1;" parent="1" vertex="1">
          <mxGeometry x="630" y="525" width="40" height="30" as="geometry" />
        </mxCell>
        <mxCell id="fabHO_pOaCCCnIY9OZKp-1" value="m" style="text;html=1;strokeColor=none;fillColor=none;align=center;verticalAlign=middle;whiteSpace=wrap;rounded=0;" parent="1" vertex="1">
          <mxGeometry x="720" y="130" width="60" height="30" as="geometry" />
        </mxCell>
        <mxCell id="fabHO_pOaCCCnIY9OZKp-5" style="edgeStyle=orthogonalEdgeStyle;rounded=0;orthogonalLoop=1;jettySize=auto;html=1;entryX=0.59;entryY=1;entryDx=0;entryDy=0;entryPerimeter=0;" parent="1" source="fabHO_pOaCCCnIY9OZKp-3" target="hdkqg9-tBqKJNnxFn2p5-1" edge="1">
          <mxGeometry relative="1" as="geometry" />
        </mxCell>
        <mxCell id="fabHO_pOaCCCnIY9OZKp-3" value="recibe" style="rhombus;whiteSpace=wrap;html=1;" parent="1" vertex="1">
          <mxGeometry x="1280" y="425" width="80" height="80" as="geometry" />
        </mxCell>
        <mxCell id="fabHO_pOaCCCnIY9OZKp-7" style="edgeStyle=orthogonalEdgeStyle;rounded=0;orthogonalLoop=1;jettySize=auto;html=1;" parent="1" source="fabHO_pOaCCCnIY9OZKp-6" target="CPYr39Uea-LIrnxPLEq8-10" edge="1">
          <mxGeometry relative="1" as="geometry">
            <Array as="points">
              <mxPoint x="270" y="-100" />
              <mxPoint x="390" y="-100" />
            </Array>
          </mxGeometry>
        </mxCell>
        <mxCell id="fabHO_pOaCCCnIY9OZKp-6" value="id_departamento" style="ellipse;whiteSpace=wrap;html=1;align=center;fontStyle=4;" parent="1" vertex="1">
          <mxGeometry x="220" y="-170" width="100" height="40" as="geometry" />
        </mxCell>
        <mxCell id="fabHO_pOaCCCnIY9OZKp-9" style="edgeStyle=orthogonalEdgeStyle;rounded=0;orthogonalLoop=1;jettySize=auto;html=1;" parent="1" source="fabHO_pOaCCCnIY9OZKp-8" target="CPYr39Uea-LIrnxPLEq8-10" edge="1">
          <mxGeometry relative="1" as="geometry" />
        </mxCell>
        <mxCell id="fabHO_pOaCCCnIY9OZKp-8" value="nombre" style="ellipse;whiteSpace=wrap;html=1;align=center;" parent="1" vertex="1">
          <mxGeometry x="340" y="-170" width="100" height="40" as="geometry" />
        </mxCell>
        <mxCell id="fabHO_pOaCCCnIY9OZKp-11" style="edgeStyle=orthogonalEdgeStyle;rounded=0;orthogonalLoop=1;jettySize=auto;html=1;entryX=0.5;entryY=0;entryDx=0;entryDy=0;" parent="1" source="fabHO_pOaCCCnIY9OZKp-10" target="CPYr39Uea-LIrnxPLEq8-10" edge="1">
          <mxGeometry relative="1" as="geometry">
            <Array as="points">
              <mxPoint x="510" y="-100" />
              <mxPoint x="390" y="-100" />
            </Array>
          </mxGeometry>
        </mxCell>
        <mxCell id="fabHO_pOaCCCnIY9OZKp-10" value="arduino" style="ellipse;whiteSpace=wrap;html=1;align=center;" parent="1" vertex="1">
          <mxGeometry x="460" y="-170" width="100" height="40" as="geometry" />
        </mxCell>
        <mxCell id="fabHO_pOaCCCnIY9OZKp-13" style="edgeStyle=orthogonalEdgeStyle;rounded=0;orthogonalLoop=1;jettySize=auto;html=1;entryX=1;entryY=0.5;entryDx=0;entryDy=0;" parent="1" source="fabHO_pOaCCCnIY9OZKp-12" target="hdkqg9-tBqKJNnxFn2p5-14" edge="1">
          <mxGeometry relative="1" as="geometry">
            <mxPoint x="840" y="330" as="targetPoint" />
          </mxGeometry>
        </mxCell>
        <mxCell id="fabHO_pOaCCCnIY9OZKp-12" value="id_cita" style="ellipse;whiteSpace=wrap;html=1;align=center;fontStyle=4;" parent="1" vertex="1">
          <mxGeometry x="950" y="365" width="100" height="40" as="geometry" />
        </mxCell>
        <mxCell id="fabHO_pOaCCCnIY9OZKp-17" style="edgeStyle=orthogonalEdgeStyle;rounded=0;orthogonalLoop=1;jettySize=auto;html=1;entryX=1;entryY=0.5;entryDx=0;entryDy=0;" parent="1" source="fabHO_pOaCCCnIY9OZKp-14" target="hdkqg9-tBqKJNnxFn2p5-14" edge="1">
          <mxGeometry relative="1" as="geometry">
            <mxPoint x="860" y="440" as="targetPoint" />
          </mxGeometry>
        </mxCell>
        <mxCell id="fabHO_pOaCCCnIY9OZKp-14" value="fecha" style="ellipse;whiteSpace=wrap;html=1;align=center;" parent="1" vertex="1">
          <mxGeometry x="950" y="420" width="100" height="40" as="geometry" />
        </mxCell>
        <mxCell id="fabHO_pOaCCCnIY9OZKp-16" style="edgeStyle=orthogonalEdgeStyle;rounded=0;orthogonalLoop=1;jettySize=auto;html=1;entryX=1;entryY=0.5;entryDx=0;entryDy=0;" parent="1" source="fabHO_pOaCCCnIY9OZKp-15" target="hdkqg9-tBqKJNnxFn2p5-14" edge="1">
          <mxGeometry relative="1" as="geometry">
            <mxPoint x="860" y="440" as="targetPoint" />
          </mxGeometry>
        </mxCell>
        <mxCell id="fabHO_pOaCCCnIY9OZKp-15" value="proposito" style="ellipse;whiteSpace=wrap;html=1;align=center;" parent="1" vertex="1">
          <mxGeometry x="950" y="475" width="100" height="40" as="geometry" />
        </mxCell>
        <mxCell id="fabHO_pOaCCCnIY9OZKp-18" value="1" style="text;html=1;strokeColor=none;fillColor=none;align=center;verticalAlign=middle;whiteSpace=wrap;rounded=0;" parent="1" vertex="1">
          <mxGeometry x="1320" y="210" width="60" height="30" as="geometry" />
        </mxCell>
        <mxCell id="fabHO_pOaCCCnIY9OZKp-19" value="1:m" style="text;html=1;strokeColor=none;fillColor=none;align=center;verticalAlign=middle;whiteSpace=wrap;rounded=0;" parent="1" vertex="1">
          <mxGeometry x="1360" y="445" width="60" height="30" as="geometry" />
        </mxCell>
        <mxCell id="fabHO_pOaCCCnIY9OZKp-24" style="edgeStyle=orthogonalEdgeStyle;rounded=0;orthogonalLoop=1;jettySize=auto;html=1;entryX=1;entryY=0.5;entryDx=0;entryDy=0;" parent="1" source="fabHO_pOaCCCnIY9OZKp-20" target="hdkqg9-tBqKJNnxFn2p5-1" edge="1">
          <mxGeometry relative="1" as="geometry" />
        </mxCell>
        <mxCell id="fabHO_pOaCCCnIY9OZKp-20" value="id_receta" style="ellipse;whiteSpace=wrap;html=1;align=center;" parent="1" vertex="1">
          <mxGeometry x="1420" y="70" width="100" height="40" as="geometry" />
        </mxCell>
        <mxCell id="fabHO_pOaCCCnIY9OZKp-25" style="edgeStyle=orthogonalEdgeStyle;rounded=0;orthogonalLoop=1;jettySize=auto;html=1;entryX=1;entryY=0.5;entryDx=0;entryDy=0;" parent="1" source="fabHO_pOaCCCnIY9OZKp-21" target="hdkqg9-tBqKJNnxFn2p5-1" edge="1">
          <mxGeometry relative="1" as="geometry" />
        </mxCell>
        <mxCell id="fabHO_pOaCCCnIY9OZKp-21" value="medicamento" style="ellipse;whiteSpace=wrap;html=1;align=center;" parent="1" vertex="1">
          <mxGeometry x="1420" y="125" width="100" height="40" as="geometry" />
        </mxCell>
        <mxCell id="fabHO_pOaCCCnIY9OZKp-26" style="edgeStyle=orthogonalEdgeStyle;rounded=0;orthogonalLoop=1;jettySize=auto;html=1;entryX=1;entryY=0.5;entryDx=0;entryDy=0;" parent="1" source="fabHO_pOaCCCnIY9OZKp-22" target="hdkqg9-tBqKJNnxFn2p5-1" edge="1">
          <mxGeometry relative="1" as="geometry" />
        </mxCell>
        <mxCell id="fabHO_pOaCCCnIY9OZKp-22" value="dosis" style="ellipse;whiteSpace=wrap;html=1;align=center;" parent="1" vertex="1">
          <mxGeometry x="1420" y="180" width="100" height="40" as="geometry" />
        </mxCell>
        <mxCell id="fabHO_pOaCCCnIY9OZKp-27" style="edgeStyle=orthogonalEdgeStyle;rounded=0;orthogonalLoop=1;jettySize=auto;html=1;entryX=1;entryY=0.5;entryDx=0;entryDy=0;" parent="1" source="fabHO_pOaCCCnIY9OZKp-23" target="hdkqg9-tBqKJNnxFn2p5-1" edge="1">
          <mxGeometry relative="1" as="geometry" />
        </mxCell>
        <mxCell id="fabHO_pOaCCCnIY9OZKp-23" value="Frecuencia" style="ellipse;whiteSpace=wrap;html=1;align=center;" parent="1" vertex="1">
          <mxGeometry x="1420" y="230" width="100" height="40" as="geometry" />
        </mxCell>
        <mxCell id="fabHO_pOaCCCnIY9OZKp-31" style="edgeStyle=orthogonalEdgeStyle;rounded=0;orthogonalLoop=1;jettySize=auto;html=1;" parent="1" source="fabHO_pOaCCCnIY9OZKp-28" target="fabHO_pOaCCCnIY9OZKp-30" edge="1">
          <mxGeometry relative="1" as="geometry" />
        </mxCell>
        <mxCell id="fabHO_pOaCCCnIY9OZKp-28" value="Historial" style="whiteSpace=wrap;html=1;align=center;" parent="1" vertex="1">
          <mxGeometry x="150" y="430" width="100" height="40" as="geometry" />
        </mxCell>
        <mxCell id="fabHO_pOaCCCnIY9OZKp-32" style="edgeStyle=orthogonalEdgeStyle;rounded=0;orthogonalLoop=1;jettySize=auto;html=1;entryX=0;entryY=0.5;entryDx=0;entryDy=0;" parent="1" source="fabHO_pOaCCCnIY9OZKp-30" target="CPYr39Uea-LIrnxPLEq8-3" edge="1">
          <mxGeometry relative="1" as="geometry" />
        </mxCell>
        <mxCell id="fabHO_pOaCCCnIY9OZKp-30" value="corresponde" style="rhombus;whiteSpace=wrap;html=1;" parent="1" vertex="1">
          <mxGeometry x="260" y="525" width="80" height="80" as="geometry" />
        </mxCell>
        <mxCell id="fabHO_pOaCCCnIY9OZKp-33" value="1" style="text;html=1;strokeColor=none;fillColor=none;align=center;verticalAlign=middle;whiteSpace=wrap;rounded=0;" parent="1" vertex="1">
          <mxGeometry x="250" y="415" width="60" height="30" as="geometry" />
        </mxCell>
        <mxCell id="fabHO_pOaCCCnIY9OZKp-34" value="1,1" style="text;html=1;strokeColor=none;fillColor=none;align=center;verticalAlign=middle;whiteSpace=wrap;rounded=0;" parent="1" vertex="1">
          <mxGeometry x="200" y="550" width="60" height="30" as="geometry" />
        </mxCell>
        <mxCell id="fabHO_pOaCCCnIY9OZKp-35" value="1" style="text;html=1;strokeColor=none;fillColor=none;align=center;verticalAlign=middle;whiteSpace=wrap;rounded=0;" parent="1" vertex="1">
          <mxGeometry x="430" y="570" width="60" height="30" as="geometry" />
        </mxCell>
        <mxCell id="fabHO_pOaCCCnIY9OZKp-42" style="edgeStyle=orthogonalEdgeStyle;rounded=0;orthogonalLoop=1;jettySize=auto;html=1;entryX=0.75;entryY=0;entryDx=0;entryDy=0;" parent="1" source="fabHO_pOaCCCnIY9OZKp-36" target="CPYr39Uea-LIrnxPLEq8-1" edge="1">
          <mxGeometry relative="1" as="geometry" />
        </mxCell>
        <mxCell id="fabHO_pOaCCCnIY9OZKp-36" value="dni_medico" style="ellipse;whiteSpace=wrap;html=1;align=center;fontStyle=4;" parent="1" vertex="1">
          <mxGeometry x="710" y="20" width="100" height="40" as="geometry" />
        </mxCell>
        <mxCell id="fabHO_pOaCCCnIY9OZKp-43" style="edgeStyle=orthogonalEdgeStyle;rounded=0;orthogonalLoop=1;jettySize=auto;html=1;entryX=0.75;entryY=0;entryDx=0;entryDy=0;" parent="1" source="fabHO_pOaCCCnIY9OZKp-38" target="CPYr39Uea-LIrnxPLEq8-1" edge="1">
          <mxGeometry relative="1" as="geometry">
            <Array as="points">
              <mxPoint x="860" y="100" />
              <mxPoint x="695" y="100" />
            </Array>
          </mxGeometry>
        </mxCell>
        <mxCell id="fabHO_pOaCCCnIY9OZKp-38" value="nombre" style="ellipse;whiteSpace=wrap;html=1;align=center;" parent="1" vertex="1">
          <mxGeometry x="810" y="20" width="100" height="40" as="geometry" />
        </mxCell>
        <mxCell id="fabHO_pOaCCCnIY9OZKp-44" style="edgeStyle=orthogonalEdgeStyle;rounded=0;orthogonalLoop=1;jettySize=auto;html=1;entryX=0.75;entryY=0;entryDx=0;entryDy=0;" parent="1" source="fabHO_pOaCCCnIY9OZKp-39" target="CPYr39Uea-LIrnxPLEq8-1" edge="1">
          <mxGeometry relative="1" as="geometry">
            <Array as="points">
              <mxPoint x="960" y="100" />
              <mxPoint x="695" y="100" />
            </Array>
          </mxGeometry>
        </mxCell>
        <mxCell id="fabHO_pOaCCCnIY9OZKp-39" value="apellido" style="ellipse;whiteSpace=wrap;html=1;align=center;" parent="1" vertex="1">
          <mxGeometry x="910" y="20" width="100" height="40" as="geometry" />
        </mxCell>
        <mxCell id="fabHO_pOaCCCnIY9OZKp-45" style="edgeStyle=orthogonalEdgeStyle;rounded=0;orthogonalLoop=1;jettySize=auto;html=1;entryX=0.75;entryY=0;entryDx=0;entryDy=0;" parent="1" source="fabHO_pOaCCCnIY9OZKp-40" target="CPYr39Uea-LIrnxPLEq8-1" edge="1">
          <mxGeometry relative="1" as="geometry">
            <Array as="points">
              <mxPoint x="1060" y="100" />
              <mxPoint x="695" y="100" />
            </Array>
          </mxGeometry>
        </mxCell>
        <mxCell id="fabHO_pOaCCCnIY9OZKp-40" value="Tlf" style="ellipse;whiteSpace=wrap;html=1;align=center;" parent="1" vertex="1">
          <mxGeometry x="1010" y="20" width="100" height="40" as="geometry" />
        </mxCell>
        <mxCell id="fabHO_pOaCCCnIY9OZKp-50" style="edgeStyle=orthogonalEdgeStyle;rounded=0;orthogonalLoop=1;jettySize=auto;html=1;entryX=0;entryY=0.5;entryDx=0;entryDy=0;" parent="1" source="fabHO_pOaCCCnIY9OZKp-46" target="fabHO_pOaCCCnIY9OZKp-28" edge="1">
          <mxGeometry relative="1" as="geometry" />
        </mxCell>
        <mxCell id="fabHO_pOaCCCnIY9OZKp-46" value="id_historial" style="ellipse;whiteSpace=wrap;html=1;align=center;fontStyle=4;" parent="1" vertex="1">
          <mxGeometry y="365" width="100" height="40" as="geometry" />
        </mxCell>
        <mxCell id="fabHO_pOaCCCnIY9OZKp-51" style="edgeStyle=orthogonalEdgeStyle;rounded=0;orthogonalLoop=1;jettySize=auto;html=1;entryX=0;entryY=0.5;entryDx=0;entryDy=0;" parent="1" source="fabHO_pOaCCCnIY9OZKp-47" target="fabHO_pOaCCCnIY9OZKp-28" edge="1">
          <mxGeometry relative="1" as="geometry" />
        </mxCell>
        <mxCell id="fabHO_pOaCCCnIY9OZKp-47" value="exploración" style="ellipse;whiteSpace=wrap;html=1;align=center;" parent="1" vertex="1">
          <mxGeometry y="415" width="100" height="40" as="geometry" />
        </mxCell>
        <mxCell id="fabHO_pOaCCCnIY9OZKp-52" style="edgeStyle=orthogonalEdgeStyle;rounded=0;orthogonalLoop=1;jettySize=auto;html=1;entryX=0;entryY=0.5;entryDx=0;entryDy=0;" parent="1" source="fabHO_pOaCCCnIY9OZKp-48" target="fabHO_pOaCCCnIY9OZKp-28" edge="1">
          <mxGeometry relative="1" as="geometry" />
        </mxCell>
        <mxCell id="fabHO_pOaCCCnIY9OZKp-48" value="Diagnostico" style="ellipse;whiteSpace=wrap;html=1;align=center;" parent="1" vertex="1">
          <mxGeometry y="470" width="100" height="40" as="geometry" />
        </mxCell>
        <mxCell id="fabHO_pOaCCCnIY9OZKp-53" style="edgeStyle=orthogonalEdgeStyle;rounded=0;orthogonalLoop=1;jettySize=auto;html=1;entryX=0;entryY=0.5;entryDx=0;entryDy=0;" parent="1" source="fabHO_pOaCCCnIY9OZKp-49" target="fabHO_pOaCCCnIY9OZKp-28" edge="1">
          <mxGeometry relative="1" as="geometry" />
        </mxCell>
        <mxCell id="fabHO_pOaCCCnIY9OZKp-49" value="Tratamiento" style="ellipse;whiteSpace=wrap;html=1;align=center;" parent="1" vertex="1">
          <mxGeometry y="530" width="100" height="40" as="geometry" />
        </mxCell>
        <mxCell id="Pz2hUDX345NdzsbgaiuW-4" style="edgeStyle=orthogonalEdgeStyle;rounded=0;orthogonalLoop=1;jettySize=auto;html=1;entryX=0.75;entryY=0;entryDx=0;entryDy=0;" parent="1" source="Pz2hUDX345NdzsbgaiuW-2" target="CPYr39Uea-LIrnxPLEq8-1" edge="1">
          <mxGeometry relative="1" as="geometry">
            <Array as="points">
              <mxPoint x="1160" y="100" />
              <mxPoint x="695" y="100" />
            </Array>
          </mxGeometry>
        </mxCell>
        <mxCell id="Pz2hUDX345NdzsbgaiuW-2" value="consulta" style="ellipse;whiteSpace=wrap;html=1;align=center;" parent="1" vertex="1">
          <mxGeometry x="1110" y="20" width="100" height="40" as="geometry" />
        </mxCell>
      </root>
    </mxGraphModel>
  </diagram>
</mxfile>
